<svg width="49" height="37" viewBox="0 0 49 37" fill="none" xmlns="http://www.w3.org/2000/svg">
<mask id="path-1-inside-1_38_75" fill="white">
<path d="M30.79 22.75H19.21C16.47 22.75 14.25 20.52 14.25 17.78V10.37C14.25 9.01 15.09 7.3 16.17 6.46L21.56 2.26C23.18 1 25.77 0.94 27.45 2.12L33.63 6.45C34.82 7.28 35.75 9.06 35.75 10.51V17.79C35.75 20.52 33.53 22.75 30.79 22.75ZM22.48 3.44L17.09 7.64C16.38 8.2 15.75 9.47 15.75 10.37V17.78C15.75 18.6986 16.1142 19.5797 16.7628 20.2301C17.4114 20.8806 18.2914 21.2474 19.21 21.25H30.79C32.7 21.25 34.25 19.7 34.25 17.79V10.51C34.25 9.55 33.56 8.22 32.77 7.68L26.59 3.35C25.45 2.55 23.57 2.59 22.48 3.44Z"/>
</mask>
<path d="M16.17 6.46L17.3979 8.03871L17.3993 8.0376L16.17 6.46ZM21.56 2.26L20.3321 0.681295L20.3307 0.682399L21.56 2.26ZM27.45 2.12L26.3005 3.75663L26.3024 3.75797L27.45 2.12ZM33.63 6.45L32.4824 8.08797L32.4858 8.0904L33.63 6.45ZM22.48 3.44L23.7093 5.0176L23.7099 5.01714L22.48 3.44ZM17.09 7.64L15.8607 6.06237L15.8514 6.06967L17.09 7.64ZM15.75 17.78L17.75 17.78V17.78H15.75ZM19.21 21.25L19.2042 23.25H19.21V21.25ZM32.77 7.68L31.6224 9.31796L31.6318 9.3246L31.6414 9.33113L32.77 7.68ZM26.59 3.35L25.4411 4.98711L25.4424 4.98797L26.59 3.35ZM30.79 20.75H19.21V24.75H30.79V20.75ZM19.21 20.75C17.5798 20.75 16.25 19.4207 16.25 17.78H12.25C12.25 21.6193 15.3602 24.75 19.21 24.75V20.75ZM16.25 17.78V10.37H12.25V17.78H16.25ZM16.25 10.37C16.25 10.0681 16.3539 9.60322 16.6002 9.10163C16.8462 8.60068 17.1528 8.22935 17.3979 8.0387L14.9421 4.8813C14.1072 5.53065 13.4538 6.43432 13.0098 7.33837C12.5661 8.24178 12.25 9.31186 12.25 10.37H16.25ZM17.3993 8.0376L22.7893 3.8376L20.3307 0.682399L14.9407 4.8824L17.3993 8.0376ZM22.7879 3.8387C23.7122 3.11982 25.3375 3.08025 26.3005 3.75663L28.5995 0.483369C26.2025 -1.20025 22.6478 -1.11982 20.3321 0.681295L22.7879 3.8387ZM26.3024 3.75797L32.4824 8.08797L34.7776 4.81203L28.5976 0.482034L26.3024 3.75797ZM32.4858 8.0904C32.7572 8.27968 33.0935 8.65636 33.3635 9.17336C33.6335 9.69047 33.75 10.1807 33.75 10.51H37.75C37.75 9.3893 37.4015 8.26453 36.909 7.32164C36.4165 6.37864 35.6928 5.45032 34.7741 4.8096L32.4858 8.0904ZM33.75 10.51V17.79H37.75V10.51H33.75ZM33.75 17.79C33.75 19.4181 32.4228 20.75 30.79 20.75V24.75C34.6372 24.75 37.75 21.6219 37.75 17.79H33.75ZM21.2507 1.8624L15.8607 6.0624L18.3193 9.2176L23.7093 5.0176L21.2507 1.8624ZM15.8514 6.06967C15.1898 6.59152 14.6895 7.32397 14.3595 7.99385C14.0309 8.66124 13.75 9.51282 13.75 10.37H17.75C17.75 10.3725 17.7499 10.3559 17.7556 10.319C17.7611 10.2828 17.771 10.2342 17.7875 10.1742C17.8212 10.0522 17.8751 9.9091 17.948 9.76115C18.1105 9.43103 18.2802 9.24848 18.3286 9.21033L15.8514 6.06967ZM13.75 10.37V17.78H17.75V10.37H13.75ZM13.75 17.78C13.75 19.228 14.3241 20.6169 15.3465 21.6423L18.1791 18.818C17.9043 18.5424 17.75 18.1691 17.75 17.78L13.75 17.78ZM15.3465 21.6423C16.369 22.6677 17.7562 23.2458 19.2042 23.25L19.2158 19.25C18.8266 19.2489 18.4538 19.0935 18.1791 18.818L15.3465 21.6423ZM19.21 23.25H30.79V19.25H19.21V23.25ZM30.79 23.25C33.8046 23.25 36.25 20.8046 36.25 17.79H32.25C32.25 18.5954 31.5954 19.25 30.79 19.25V23.25ZM36.25 17.79V10.51H32.25V17.79H36.25ZM36.25 10.51C36.25 9.60855 35.9457 8.71461 35.5795 8.01251C35.2142 7.31226 34.6523 6.54402 33.8986 6.02887L31.6414 9.33113C31.6396 9.32989 31.6538 9.33954 31.6815 9.36594C31.7088 9.39194 31.7439 9.42907 31.7844 9.47872C31.8669 9.57995 31.9542 9.71149 32.033 9.86249C32.1117 10.0134 32.1705 10.162 32.2076 10.291C32.2462 10.4253 32.25 10.4991 32.25 10.51H36.25ZM33.9176 6.04203L27.7376 1.71203L25.4424 4.98797L31.6224 9.31796L33.9176 6.04203ZM27.7389 1.71289C26.7515 1.02002 25.5552 0.753231 24.4729 0.776721C23.3915 0.800188 22.2048 1.11838 21.2501 1.86285L23.7099 5.01714C23.8452 4.91162 24.1434 4.78481 24.5596 4.77578C24.9748 4.76677 25.2885 4.87998 25.4411 4.98711L27.7389 1.71289Z" fill="url(#paint0_linear_38_75)" mask="url(#path-1-inside-1_38_75)"/>
<mask id="path-3-inside-2_38_75" fill="white">
<path d="M25.1071 19.3929C24.6386 19.3929 24.25 19.0043 24.25 18.5357V15.1071C24.25 14.6386 24.6386 14.25 25.1071 14.25C25.5757 14.25 25.9643 14.6386 25.9643 15.1071V18.5357C25.9643 19.0043 25.5757 19.3929 25.1071 19.3929Z"/>
</mask>
<path d="M25.1071 19.3929C24.6386 19.3929 24.25 19.0043 24.25 18.5357V15.1071C24.25 14.6386 24.6386 14.25 25.1071 14.25C25.5757 14.25 25.9643 14.6386 25.9643 15.1071V18.5357C25.9643 19.0043 25.5757 19.3929 25.1071 19.3929Z" fill="url(#paint1_linear_38_75)"/>
<path d="M25.1071 17.3929C25.7431 17.3929 26.25 17.8997 26.25 18.5357H22.25C22.25 20.1089 23.534 21.3929 25.1071 21.3929V17.3929ZM26.25 18.5357V15.1071H22.25V18.5357H26.25ZM26.25 15.1071C26.25 15.7431 25.7431 16.25 25.1071 16.25V12.25C23.534 12.25 22.25 13.534 22.25 15.1071H26.25ZM25.1071 16.25C24.4711 16.25 23.9643 15.7431 23.9643 15.1071H27.9643C27.9643 13.534 26.6803 12.25 25.1071 12.25V16.25ZM23.9643 15.1071V18.5357H27.9643V15.1071H23.9643ZM23.9643 18.5357C23.9643 17.8997 24.4711 17.3929 25.1071 17.3929V21.3929C26.6803 21.3929 27.9643 20.1089 27.9643 18.5357H23.9643Z" fill="url(#paint2_linear_38_75)" mask="url(#path-3-inside-2_38_75)"/>
<path d="M0.860795 36V27.2727H4.2017C4.83239 27.2727 5.35653 27.3722 5.77415 27.571C6.1946 27.767 6.50852 28.0355 6.71591 28.3764C6.92614 28.7173 7.03125 29.1037 7.03125 29.5355C7.03125 29.8906 6.96307 30.1946 6.8267 30.4474C6.69034 30.6974 6.5071 30.9006 6.27699 31.0568C6.04688 31.2131 5.78977 31.3253 5.50568 31.3935V31.4787C5.81534 31.4957 6.11222 31.5909 6.39631 31.7642C6.68324 31.9347 6.91761 32.1761 7.09943 32.4886C7.28125 32.8011 7.37216 33.179 7.37216 33.6222C7.37216 34.0739 7.26278 34.4801 7.04403 34.8409C6.82528 35.1989 6.49574 35.4815 6.0554 35.6889C5.61506 35.8963 5.06108 36 4.39347 36H0.860795ZM2.44176 34.679H4.14205C4.71591 34.679 5.12926 34.5696 5.3821 34.3509C5.63778 34.1293 5.76562 33.8452 5.76562 33.4986C5.76562 33.2401 5.7017 33.0071 5.57386 32.7997C5.44602 32.5895 5.2642 32.4247 5.02841 32.3054C4.79261 32.1832 4.51136 32.1222 4.18466 32.1222H2.44176V34.679ZM2.44176 30.9844H4.00568C4.27841 30.9844 4.52415 30.9347 4.7429 30.8352C4.96165 30.733 5.13352 30.5895 5.25852 30.4048C5.38636 30.2173 5.45028 29.9957 5.45028 29.7401C5.45028 29.402 5.33097 29.1236 5.09233 28.9048C4.85653 28.6861 4.50568 28.5767 4.03977 28.5767H2.44176V30.9844ZM11.5771 36.1278C10.9208 36.1278 10.354 35.9915 9.87678 35.7188C9.40234 35.4432 9.03729 35.054 8.78161 34.5511C8.52592 34.0455 8.39808 33.4503 8.39808 32.7656C8.39808 32.0923 8.52592 31.5014 8.78161 30.9929C9.04013 30.4815 9.40092 30.0838 9.86399 29.7997C10.3271 29.5128 10.8711 29.3693 11.4961 29.3693C11.8995 29.3693 12.2802 29.4347 12.6381 29.5653C12.9989 29.6932 13.3171 29.892 13.5927 30.1619C13.8711 30.4318 14.0898 30.7756 14.2489 31.1932C14.408 31.608 14.4876 32.1023 14.4876 32.6761V33.1491H9.12251V32.1094H13.0089C13.006 31.8139 12.9421 31.5511 12.8171 31.321C12.6921 31.0881 12.5174 30.9048 12.293 30.7713C12.0714 30.6378 11.8129 30.571 11.5174 30.571C11.2021 30.571 10.9251 30.6477 10.6864 30.8011C10.4478 30.9517 10.2617 31.1506 10.1282 31.3977C9.99751 31.642 9.93075 31.9105 9.92791 32.2031V33.1108C9.92791 33.4915 9.99751 33.8182 10.1367 34.0909C10.2759 34.3608 10.4705 34.5682 10.7205 34.7131C10.9705 34.8551 11.2631 34.9261 11.5984 34.9261C11.8228 34.9261 12.0259 34.8949 12.2077 34.8324C12.3896 34.767 12.5472 34.6719 12.6808 34.5469C12.8143 34.4219 12.9151 34.267 12.9833 34.0824L14.4237 34.2443C14.3327 34.625 14.1594 34.9574 13.9038 35.2415C13.6509 35.5227 13.3271 35.7415 12.9322 35.8977C12.5373 36.0511 12.0856 36.1278 11.5771 36.1278ZM15.7926 36V29.4545H17.2884V30.5455H17.3565C17.4759 30.1676 17.6804 29.8764 17.9702 29.6719C18.2628 29.4645 18.5966 29.3608 18.9716 29.3608C19.0568 29.3608 19.152 29.3651 19.2571 29.3736C19.3651 29.3793 19.4545 29.3892 19.5256 29.4034V30.8224C19.4602 30.7997 19.3565 30.7798 19.2145 30.7628C19.0753 30.7429 18.9403 30.733 18.8097 30.733C18.5284 30.733 18.2756 30.794 18.0511 30.9162C17.8295 31.0355 17.6548 31.2017 17.527 31.4148C17.3991 31.6278 17.3352 31.8736 17.3352 32.152V36H15.7926ZM22.3168 36.1321C21.902 36.1321 21.5284 36.0582 21.196 35.9105C20.8665 35.7599 20.6051 35.5384 20.4119 35.2457C20.2216 34.9531 20.1264 34.5923 20.1264 34.1634C20.1264 33.794 20.1946 33.4886 20.331 33.2472C20.4673 33.0057 20.6534 32.8125 20.8892 32.6676C21.125 32.5227 21.3906 32.4134 21.6861 32.3395C21.9844 32.2628 22.2926 32.2074 22.6108 32.1733C22.9943 32.1335 23.3054 32.098 23.544 32.0668C23.7827 32.0327 23.956 31.9815 24.0639 31.9134C24.1747 31.8423 24.2301 31.733 24.2301 31.5852V31.5597C24.2301 31.2386 24.1349 30.9901 23.9446 30.8139C23.7543 30.6378 23.4801 30.5497 23.1222 30.5497C22.7443 30.5497 22.4446 30.6321 22.223 30.7969C22.0043 30.9616 21.8565 31.1562 21.7798 31.3807L20.3395 31.1761C20.4531 30.7784 20.6406 30.446 20.902 30.179C21.1634 29.9091 21.483 29.7074 21.8608 29.5739C22.2386 29.4375 22.6563 29.3693 23.1136 29.3693C23.429 29.3693 23.7429 29.4062 24.0554 29.4801C24.3679 29.554 24.6534 29.6761 24.9119 29.8466C25.1705 30.0142 25.3778 30.2429 25.5341 30.5327C25.6932 30.8224 25.7727 31.1847 25.7727 31.6193V36H24.2898V35.1009H24.2386C24.1449 35.2827 24.0128 35.4531 23.8423 35.6122C23.6747 35.7685 23.4631 35.8949 23.2074 35.9915C22.9545 36.0852 22.6577 36.1321 22.3168 36.1321ZM22.7173 34.9986C23.027 34.9986 23.2955 34.9375 23.5227 34.8153C23.75 34.6903 23.9247 34.5256 24.0469 34.321C24.1719 34.1165 24.2344 33.8935 24.2344 33.652V32.8807C24.1861 32.9205 24.1037 32.9574 23.9872 32.9915C23.8736 33.0256 23.7457 33.0554 23.6037 33.081C23.4616 33.1065 23.321 33.1293 23.1818 33.1491C23.0426 33.169 22.9219 33.1861 22.8196 33.2003C22.5895 33.2315 22.3835 33.2827 22.2017 33.3537C22.0199 33.4247 21.8764 33.5241 21.7713 33.652C21.6662 33.777 21.6136 33.9389 21.6136 34.1378C21.6136 34.4219 21.7173 34.6364 21.9247 34.7812C22.1321 34.9261 22.3963 34.9986 22.7173 34.9986ZM28.8665 32.1648V36H27.3239V29.4545H28.7983V30.5668H28.875C29.0256 30.2003 29.2656 29.9091 29.5952 29.6932C29.9276 29.4773 30.3381 29.3693 30.8267 29.3693C31.2784 29.3693 31.6719 29.4659 32.0071 29.6591C32.3452 29.8523 32.6065 30.1321 32.7912 30.4986C32.9787 30.8651 33.071 31.3097 33.0682 31.8324V36H31.5256V32.071C31.5256 31.6335 31.4119 31.2912 31.1847 31.044C30.9602 30.7969 30.6491 30.6733 30.2514 30.6733C29.9815 30.6733 29.7415 30.733 29.5312 30.8523C29.3239 30.9687 29.1605 31.1378 29.0412 31.3594C28.9247 31.581 28.8665 31.8494 28.8665 32.1648ZM37.0653 36.1151C36.5511 36.1151 36.0909 35.983 35.6847 35.7188C35.2784 35.4545 34.9574 35.071 34.7216 34.5682C34.4858 34.0653 34.3679 33.4545 34.3679 32.7358C34.3679 32.0085 34.4872 31.3949 34.7259 30.8949C34.9673 30.392 35.2926 30.0128 35.7017 29.7571C36.1108 29.4986 36.5668 29.3693 37.0696 29.3693C37.4531 29.3693 37.7685 29.4347 38.0156 29.5653C38.2628 29.6932 38.4588 29.848 38.6037 30.0298C38.7486 30.2088 38.8608 30.3778 38.9403 30.5369H39.0043V27.2727H40.5511V36H39.0341V34.9688H38.9403C38.8608 35.1278 38.7457 35.2969 38.5952 35.4759C38.4446 35.652 38.2457 35.8026 37.9986 35.9276C37.7514 36.0526 37.4403 36.1151 37.0653 36.1151ZM37.4957 34.8494C37.8224 34.8494 38.1009 34.7614 38.331 34.5852C38.5611 34.4062 38.7358 34.1577 38.8551 33.8395C38.9744 33.5213 39.0341 33.1506 39.0341 32.7273C39.0341 32.304 38.9744 31.9361 38.8551 31.6236C38.7386 31.3111 38.5653 31.0682 38.3352 30.8949C38.108 30.7216 37.8281 30.6349 37.4957 30.6349C37.152 30.6349 36.8651 30.7244 36.6349 30.9034C36.4048 31.0824 36.2315 31.3295 36.1151 31.6449C35.9986 31.9602 35.9403 32.321 35.9403 32.7273C35.9403 33.1364 35.9986 33.5014 36.1151 33.8224C36.2344 34.1406 36.4091 34.392 36.6392 34.5767C36.8722 34.7585 37.1577 34.8494 37.4957 34.8494ZM44.0785 36.1321C43.6637 36.1321 43.2901 36.0582 42.9577 35.9105C42.6282 35.7599 42.3668 35.5384 42.1737 35.2457C41.9833 34.9531 41.8881 34.5923 41.8881 34.1634C41.8881 33.794 41.9563 33.4886 42.0927 33.2472C42.229 33.0057 42.4151 32.8125 42.6509 32.6676C42.8867 32.5227 43.1523 32.4134 43.4478 32.3395C43.7461 32.2628 44.0543 32.2074 44.3725 32.1733C44.756 32.1335 45.0671 32.098 45.3058 32.0668C45.5444 32.0327 45.7177 31.9815 45.8256 31.9134C45.9364 31.8423 45.9918 31.733 45.9918 31.5852V31.5597C45.9918 31.2386 45.8967 30.9901 45.7063 30.8139C45.516 30.6378 45.2418 30.5497 44.8839 30.5497C44.506 30.5497 44.2063 30.6321 43.9847 30.7969C43.766 30.9616 43.6183 31.1562 43.5415 31.3807L42.1012 31.1761C42.2148 30.7784 42.4023 30.446 42.6637 30.179C42.9251 29.9091 43.2447 29.7074 43.6225 29.5739C44.0004 29.4375 44.418 29.3693 44.8754 29.3693C45.1907 29.3693 45.5046 29.4062 45.8171 29.4801C46.1296 29.554 46.4151 29.6761 46.6737 29.8466C46.9322 30.0142 47.1396 30.2429 47.2958 30.5327C47.4549 30.8224 47.5344 31.1847 47.5344 31.6193V36H46.0515V35.1009H46.0004C45.9066 35.2827 45.7745 35.4531 45.604 35.6122C45.4364 35.7685 45.2248 35.8949 44.9691 35.9915C44.7163 36.0852 44.4194 36.1321 44.0785 36.1321ZM44.479 34.9986C44.7887 34.9986 45.0572 34.9375 45.2844 34.8153C45.5117 34.6903 45.6864 34.5256 45.8086 34.321C45.9336 34.1165 45.9961 33.8935 45.9961 33.652V32.8807C45.9478 32.9205 45.8654 32.9574 45.7489 32.9915C45.6353 33.0256 45.5075 33.0554 45.3654 33.081C45.2234 33.1065 45.0827 33.1293 44.9435 33.1491C44.8043 33.169 44.6836 33.1861 44.5813 33.2003C44.3512 33.2315 44.1452 33.2827 43.9634 33.3537C43.7816 33.4247 43.6381 33.5241 43.533 33.652C43.4279 33.777 43.3754 33.9389 43.3754 34.1378C43.3754 34.4219 43.479 34.6364 43.6864 34.7812C43.8938 34.9261 44.158 34.9986 44.479 34.9986Z" fill="url(#paint3_linear_38_75)"/>
<defs>
<linearGradient id="paint0_linear_38_75" x1="25" y1="6.7293" x2="25" y2="22.75" gradientUnits="userSpaceOnUse">
<stop stop-color="#30B3E5"/>
<stop offset="1" stop-color="#1A91F8"/>
</linearGradient>
<linearGradient id="paint1_linear_38_75" x1="25.1071" y1="15.5565" x2="25.1071" y2="19.3929" gradientUnits="userSpaceOnUse">
<stop stop-color="#30B3E5"/>
<stop offset="1" stop-color="#1A91F8"/>
</linearGradient>
<linearGradient id="paint2_linear_38_75" x1="25.1071" y1="15.5565" x2="25.1071" y2="19.3929" gradientUnits="userSpaceOnUse">
<stop stop-color="#30B3E5"/>
<stop offset="1" stop-color="#1A91F8"/>
</linearGradient>
<linearGradient id="paint3_linear_38_75" x1="24.5" y1="27.8106" x2="24.5" y2="39" gradientUnits="userSpaceOnUse">
<stop stop-color="#30B3E5"/>
<stop offset="1" stop-color="#1A91F8"/>
</linearGradient>
</defs>
</svg>
