<svg width="20" height="20" viewBox="0 0 20 20" fill="none" xmlns="http://www.w3.org/2000/svg">
<path d="M13.3333 0.833328C13.5544 0.833328 13.7663 0.921126 13.9226 1.07741C14.0789 1.23369 14.1667 1.44565 14.1667 1.66666V2.49999H18.3333V7.49999H16.6508L18.9392 13.7867C19.1031 14.2098 19.1789 14.6619 19.162 15.1153C19.145 15.5687 19.0357 16.0139 18.8406 16.4236C18.6456 16.8333 18.369 17.1989 18.0277 17.4979C17.6864 17.7969 17.2877 18.0231 16.8559 18.1627C16.4242 18.3022 15.9685 18.3521 15.5168 18.3093C15.065 18.2666 14.6268 18.132 14.2289 17.9139C13.831 17.6959 13.4818 17.3989 13.2027 17.0411C12.9236 16.6833 12.7205 16.2723 12.6058 15.8333H9.06167C8.87227 16.5647 8.44016 17.2101 7.83608 17.6638C7.232 18.1176 6.49177 18.3528 5.73658 18.3309C4.98139 18.309 4.25601 18.0313 3.67922 17.5434C3.10243 17.0554 2.7084 16.3861 2.56167 15.645C2.29161 15.5039 2.06539 15.2915 1.9076 15.0309C1.7498 14.7703 1.66648 14.4713 1.66667 14.1667V5.83333C1.66667 5.61231 1.75447 5.40035 1.91075 5.24407C2.06703 5.08779 2.27899 4.99999 2.50001 4.99999H8.33334C8.55435 4.99999 8.76631 5.08779 8.92259 5.24407C9.07887 5.40035 9.16667 5.61231 9.16667 5.83333V9.99999C9.16667 10.221 9.25447 10.433 9.41075 10.5893C9.56703 10.7455 9.77899 10.8333 10 10.8333H11.6667C11.8877 10.8333 12.0996 10.7455 12.2559 10.5893C12.4122 10.433 12.5 10.221 12.5 9.99999V2.49999H10V0.833328H13.3333ZM5.83334 13.3333C5.39131 13.3333 4.96739 13.5089 4.65483 13.8215C4.34227 14.134 4.16667 14.558 4.16667 15C4.16667 15.442 4.34227 15.8659 4.65483 16.1785C4.96739 16.4911 5.39131 16.6667 5.83334 16.6667C6.27537 16.6667 6.69929 16.4911 7.01185 16.1785C7.32441 15.8659 7.50001 15.442 7.50001 15C7.50001 14.558 7.32441 14.134 7.01185 13.8215C6.69929 13.5089 6.27537 13.3333 5.83334 13.3333ZM15.8333 13.3325C15.4789 13.3326 15.1337 13.4457 14.848 13.6553C14.5622 13.865 14.3507 14.1603 14.2442 14.4983C14.1377 14.8364 14.1417 15.1996 14.2557 15.5352C14.3697 15.8708 14.5877 16.1613 14.8781 16.3645C15.1684 16.5678 15.516 16.6732 15.8704 16.6654C16.2247 16.6577 16.5673 16.5371 16.8485 16.3214C17.1297 16.1056 17.3348 15.8058 17.4339 15.4655C17.5331 15.1252 17.5212 14.7622 17.4 14.4292L17.3858 14.3925C17.2636 14.0803 17.0501 13.8122 16.7731 13.6232C16.4961 13.4343 16.1686 13.3332 15.8333 13.3333V13.3325ZM14.8775 7.49999H14.1667V9.99999C14.1667 10.663 13.9033 11.2989 13.4344 11.7678C12.9656 12.2366 12.3297 12.5 11.6667 12.5H10C9.33696 12.5 8.70108 12.2366 8.23224 11.7678C7.7634 11.2989 7.50001 10.663 7.50001 9.99999H3.33334V12.795C3.73404 12.3413 4.25068 12.0051 4.82788 11.8227C5.40507 11.6402 6.02104 11.6183 6.60975 11.7592C7.19845 11.9002 7.73769 12.1987 8.16963 12.6229C8.60158 13.047 8.90995 13.5806 9.06167 14.1667H12.605C12.815 13.3543 13.3234 12.651 14.029 12.1969C14.7345 11.7428 15.5853 11.5713 16.4117 11.7167L14.8775 7.49999ZM7.50001 6.66666H3.33334V8.33333H7.50001V6.66666ZM16.6667 4.16666H14.1667V5.83333H16.6667V4.16666Z" fill="black"/>
</svg>
