<svg width="22" height="16" viewBox="0 0 22 16" fill="none" xmlns="http://www.w3.org/2000/svg">
<path d="M19.8571 1H2.57143C1.70355 1 1 1.70356 1 2.57143V13.5714C1 14.4393 1.70355 15.1429 2.57143 15.1429H19.8571C20.725 15.1429 21.4286 14.4393 21.4286 13.5714V2.57143C21.4286 1.70356 20.725 1 19.8571 1Z" fill="#FFCC19" stroke="#2E6EB6" stroke-linecap="round" stroke-linejoin="round"/>
<path d="M7.28572 10.4286C8.58754 10.4286 9.64286 9.37325 9.64286 8.07143C9.64286 6.76961 8.58754 5.71429 7.28572 5.71429C5.9839 5.71429 4.92857 6.76961 4.92857 8.07143C4.92857 9.37325 5.9839 10.4286 7.28572 10.4286Z" fill="#FFCC19" stroke="#2E6EB6" stroke-linecap="round" stroke-linejoin="round"/>
<path d="M13.5714 5.71429H17.5Z" fill="#FFCC19"/>
<path d="M13.5714 5.71429H17.5" stroke="#2E6EB6" stroke-linecap="round" stroke-linejoin="round"/>
<path d="M13.5714 10.4286H17.5Z" fill="#FFCC19"/>
<path d="M13.5714 10.4286H17.5" stroke="#2E6EB6" stroke-linecap="round" stroke-linejoin="round"/>
</svg>
