<svg width="18" height="18" viewBox="0 0 18 18" fill="none" xmlns="http://www.w3.org/2000/svg">
<g clip-path="url(#clip0_17_69)">
<path d="M12.75 9.375C12.8495 9.375 12.9448 9.33549 13.0152 9.26517C13.0855 9.19484 13.125 9.09946 13.125 9C13.125 8.90054 13.0855 8.80516 13.0152 8.73483C12.9448 8.66451 12.8495 8.625 12.75 8.625C12.6505 8.625 12.5552 8.66451 12.4848 8.73483C12.4145 8.80516 12.375 8.90054 12.375 9C12.375 9.09946 12.4145 9.19484 12.4848 9.26517C12.5552 9.33549 12.6505 9.375 12.75 9.375ZM9 9.375C9.09946 9.375 9.19484 9.33549 9.26517 9.26517C9.33549 9.19484 9.375 9.09946 9.375 9C9.375 8.90054 9.33549 8.80516 9.26517 8.73483C9.19484 8.66451 9.09946 8.625 9 8.625C8.90054 8.625 8.80516 8.66451 8.73483 8.73483C8.66451 8.80516 8.625 8.90054 8.625 9C8.625 9.09946 8.66451 9.19484 8.73483 9.26517C8.80516 9.33549 8.90054 9.375 9 9.375ZM5.25 9.375C5.34946 9.375 5.44484 9.33549 5.51516 9.26517C5.58549 9.19484 5.625 9.09946 5.625 9C5.625 8.90054 5.58549 8.80516 5.51516 8.73483C5.44484 8.66451 5.34946 8.625 5.25 8.625C5.15054 8.625 5.05516 8.66451 4.98484 8.73483C4.91451 8.80516 4.875 8.90054 4.875 9C4.875 9.09946 4.91451 9.19484 4.98484 9.26517C5.05516 9.33549 5.15054 9.375 5.25 9.375Z" fill="white" stroke="white" stroke-width="1.125" stroke-linecap="round" stroke-linejoin="round"/>
<path d="M9 16.5C13.1422 16.5 16.5 13.1422 16.5 9C16.5 4.85775 13.1422 1.5 9 1.5C4.85775 1.5 1.5 4.85775 1.5 9C1.5 10.3657 1.86525 11.6475 2.5035 12.75L1.875 16.125L5.25 15.4965C6.38966 16.1558 7.68339 16.502 9 16.5Z" stroke="white" stroke-width="1.125" stroke-linecap="round" stroke-linejoin="round"/>
</g>
<defs>
<clipPath id="clip0_17_69">
<rect width="18" height="18" fill="white"/>
</clipPath>
</defs>
</svg>
