<svg width="57" height="41" viewBox="0 0 57 41" fill="none" xmlns="http://www.w3.org/2000/svg">
<path d="M8.33121 32.2173H6.73746C6.69201 31.9559 6.6082 31.7244 6.48604 31.5227C6.36388 31.3182 6.21189 31.1449 6.03007 31.0028C5.84826 30.8608 5.64087 30.7542 5.40791 30.6832C5.1778 30.6094 4.92922 30.5724 4.66218 30.5724C4.18774 30.5724 3.76729 30.6917 3.40081 30.9304C3.03434 31.1662 2.7474 31.5128 2.54002 31.9702C2.33263 32.4247 2.22894 32.9801 2.22894 33.6363C2.22894 34.304 2.33263 34.8665 2.54002 35.3238C2.75024 35.7784 3.03718 36.1221 3.40081 36.3551C3.76729 36.5852 4.18632 36.7003 4.65791 36.7003C4.91928 36.7003 5.1636 36.6662 5.39087 36.598C5.62098 36.527 5.82695 36.4233 6.00877 36.2869C6.19343 36.1505 6.34826 35.9829 6.47326 35.7841C6.6011 35.5852 6.68916 35.3579 6.73746 35.1023L8.33121 35.1108C8.27155 35.5255 8.14229 35.9148 7.94343 36.2784C7.7474 36.642 7.4903 36.963 7.17212 37.2415C6.85394 37.517 6.48178 37.7329 6.05564 37.8892C5.62951 38.0426 5.15649 38.1193 4.63661 38.1193C3.86956 38.1193 3.1849 37.9417 2.58263 37.5866C1.98036 37.2315 1.50593 36.7187 1.15934 36.0483C0.812744 35.3778 0.639449 34.5738 0.639449 33.6363C0.639449 32.696 0.814165 31.892 1.1636 31.2244C1.51303 30.554 1.98888 30.0412 2.59115 29.6861C3.19343 29.3309 3.87524 29.1534 4.63661 29.1534C5.1224 29.1534 5.57411 29.2216 5.99172 29.3579C6.40934 29.4943 6.78149 29.6946 7.1082 29.9588C7.4349 30.2202 7.70337 30.5412 7.9136 30.9219C8.12666 31.2997 8.26587 31.7315 8.33121 32.2173ZM13.8827 35.2471V31.4545H15.4253V38H13.9296V36.8366H13.8614C13.7137 37.2031 13.4708 37.5028 13.1327 37.7358C12.7975 37.9687 12.3841 38.0852 11.8926 38.0852C11.4637 38.0852 11.0844 37.99 10.7549 37.7997C10.4282 37.6065 10.1725 37.3267 9.98782 36.9602C9.80316 36.5909 9.71083 36.1449 9.71083 35.6221V31.4545H11.2534V35.3835C11.2534 35.7983 11.3671 36.1278 11.5943 36.3721C11.8216 36.6165 12.1199 36.7386 12.4892 36.7386C12.7165 36.7386 12.9367 36.6832 13.1497 36.5724C13.3628 36.4616 13.5375 36.2969 13.6739 36.0781C13.8131 35.8565 13.8827 35.5795 13.8827 35.2471ZM19.8667 38.1278C19.2133 38.1278 18.6522 37.9844 18.1835 37.6974C17.7176 37.4105 17.3582 37.0142 17.1054 36.5085C16.8554 36 16.7304 35.4148 16.7304 34.7528C16.7304 34.088 16.8582 33.5014 17.1139 32.9929C17.3696 32.4815 17.7304 32.0838 18.1963 31.7997C18.665 31.5128 19.219 31.3693 19.8582 31.3693C20.3894 31.3693 20.8596 31.4673 21.2687 31.6633C21.6806 31.8565 22.0088 32.1307 22.2531 32.4858C22.4974 32.838 22.6366 33.25 22.6707 33.7216H21.1963C21.1366 33.4062 20.9946 33.1434 20.7701 32.9332C20.5485 32.7202 20.2517 32.6136 19.8795 32.6136C19.5642 32.6136 19.2872 32.6988 19.0485 32.8693C18.8099 33.0369 18.6238 33.2784 18.4903 33.5937C18.3596 33.9091 18.2943 34.2869 18.2943 34.7273C18.2943 35.1733 18.3596 35.5568 18.4903 35.8778C18.621 36.196 18.8042 36.4417 19.04 36.615C19.2787 36.7855 19.5585 36.8707 19.8795 36.8707C20.1068 36.8707 20.3099 36.8281 20.4889 36.7429C20.6707 36.6548 20.8227 36.5284 20.9448 36.3636C21.067 36.1988 21.1508 35.9986 21.1963 35.7628H22.6707C22.6338 36.2258 22.4974 36.6363 22.2616 36.9943C22.0258 37.3494 21.7048 37.6278 21.2985 37.8295C20.8923 38.0284 20.415 38.1278 19.8667 38.1278ZM23.9374 38V31.4545H25.48V38H23.9374ZM24.713 30.5255C24.4686 30.5255 24.2584 30.4446 24.0823 30.2827C23.9061 30.1179 23.8181 29.9204 23.8181 29.6903C23.8181 29.4574 23.9061 29.2599 24.0823 29.098C24.2584 28.9332 24.4686 28.8508 24.713 28.8508C24.9601 28.8508 25.1703 28.9332 25.3436 29.098C25.5198 29.2599 25.6078 29.4574 25.6078 29.6903C25.6078 29.9204 25.5198 30.1179 25.3436 30.2827C25.1703 30.4446 24.9601 30.5255 24.713 30.5255ZM28.9498 38.1321C28.535 38.1321 28.1615 38.0582 27.8291 37.9105C27.4995 37.7599 27.2382 37.5383 27.045 37.2457C26.8546 36.9531 26.7595 36.5923 26.7595 36.1633C26.7595 35.794 26.8277 35.4886 26.964 35.2471C27.1004 35.0057 27.2865 34.8125 27.5223 34.6676C27.7581 34.5227 28.0237 34.4133 28.3191 34.3395C28.6174 34.2628 28.9257 34.2074 29.2439 34.1733C29.6274 34.1335 29.9385 34.098 30.1771 34.0667C30.4157 34.0327 30.589 33.9815 30.697 33.9133C30.8078 33.8423 30.8632 33.7329 30.8632 33.5852V33.5596C30.8632 33.2386 30.768 32.99 30.5777 32.8139C30.3873 32.6378 30.1132 32.5497 29.7552 32.5497C29.3774 32.5497 29.0777 32.6321 28.8561 32.7969C28.6373 32.9616 28.4896 33.1562 28.4129 33.3807L26.9725 33.1761C27.0862 32.7784 27.2737 32.446 27.535 32.179C27.7964 31.9091 28.116 31.7074 28.4939 31.5738C28.8717 31.4375 29.2893 31.3693 29.7467 31.3693C30.062 31.3693 30.376 31.4062 30.6885 31.4801C31.001 31.554 31.2865 31.6761 31.545 31.8466C31.8035 32.0142 32.0109 32.2429 32.1671 32.5327C32.3262 32.8224 32.4058 33.1846 32.4058 33.6193V38H30.9228V37.1008H30.8717C30.7779 37.2827 30.6458 37.4531 30.4754 37.6122C30.3078 37.7684 30.0961 37.8949 29.8404 37.9915C29.5876 38.0852 29.2907 38.1321 28.9498 38.1321ZM29.3504 36.9986C29.66 36.9986 29.9285 36.9375 30.1558 36.8153C30.3831 36.6903 30.5578 36.5255 30.6799 36.321C30.8049 36.1165 30.8674 35.8934 30.8674 35.652V34.8807C30.8191 34.9204 30.7368 34.9574 30.6203 34.9915C30.5066 35.0255 30.3788 35.0554 30.2367 35.0809C30.0947 35.1065 29.9541 35.1292 29.8149 35.1491C29.6757 35.169 29.5549 35.1861 29.4527 35.2003C29.2225 35.2315 29.0166 35.2827 28.8348 35.3537C28.6529 35.4247 28.5095 35.5241 28.4044 35.652C28.2992 35.777 28.2467 35.9389 28.2467 36.1378C28.2467 36.4219 28.3504 36.6363 28.5578 36.7812C28.7652 36.9261 29.0294 36.9986 29.3504 36.9986ZM35.4995 34.1648V38H33.9569V31.4545H35.4314V32.5667H35.5081C35.6586 32.2003 35.8987 31.9091 36.2282 31.6932C36.5606 31.4773 36.9711 31.3693 37.4598 31.3693C37.9115 31.3693 38.3049 31.4659 38.6402 31.6591C38.9782 31.8523 39.2396 32.1321 39.4242 32.4986C39.6117 32.865 39.7041 33.3096 39.7012 33.8324V38H38.1586V34.071C38.1586 33.6335 38.045 33.2912 37.8177 33.044C37.5933 32.7969 37.2822 32.6733 36.8845 32.6733C36.6146 32.6733 36.3745 32.7329 36.1643 32.8523C35.9569 32.9687 35.7936 33.1378 35.6742 33.3594C35.5578 33.5809 35.4995 33.8494 35.4995 34.1648ZM42.6757 35.946L42.6714 34.0838H42.9186L45.2708 31.4545H47.0734L44.1799 34.6761H43.8603L42.6757 35.946ZM41.2694 38V29.2727H42.812V38H41.2694ZM45.3774 38L43.2467 35.0213L44.2865 33.9346L47.2225 38H45.3774ZM52.2733 35.2471V31.4545H53.8159V38H52.3202V36.8366H52.252C52.1043 37.2031 51.8614 37.5028 51.5233 37.7358C51.1881 37.9687 50.7747 38.0852 50.2833 38.0852C49.8543 38.0852 49.475 37.99 49.1455 37.7997C48.8188 37.6065 48.5631 37.3267 48.3784 36.9602C48.1938 36.5909 48.1015 36.1449 48.1015 35.6221V31.4545H49.6441V35.3835C49.6441 35.7983 49.7577 36.1278 49.985 36.3721C50.2122 36.6165 50.5105 36.7386 50.8799 36.7386C51.1071 36.7386 51.3273 36.6832 51.5404 36.5724C51.7534 36.4616 51.9282 36.2969 52.0645 36.0781C52.2037 35.8565 52.2733 35.5795 52.2733 35.2471Z" fill="url(#paint0_linear_39_90)"/>
<g clip-path="url(#clip0_39_90)">
<path d="M32.2859 4.57151H34.8573C35.312 4.57151 35.748 4.75213 36.0695 5.07362C36.391 5.39511 36.5716 5.83114 36.5716 6.2858V23.4287C36.5716 23.8833 36.391 24.3194 36.0695 24.6408C35.748 24.9623 35.312 25.1429 34.8573 25.1429H21.143C20.6884 25.1429 20.2523 24.9623 19.9308 24.6408C19.6094 24.3194 19.4287 23.8833 19.4287 23.4287V6.2858C19.4287 5.83114 19.6094 5.39511 19.9308 5.07362C20.2523 4.75213 20.6884 4.57151 21.143 4.57151H23.7145" stroke="url(#paint1_linear_39_90)" stroke-width="1.5" stroke-linecap="round" stroke-linejoin="round"/>
<path d="M30.5716 2.85723H25.4287C24.482 2.85723 23.7144 3.62474 23.7144 4.57151V5.42866C23.7144 6.37543 24.482 7.14294 25.4287 7.14294H30.5716C31.5184 7.14294 32.2859 6.37543 32.2859 5.42866V4.57151C32.2859 3.62474 31.5184 2.85723 30.5716 2.85723Z" stroke="url(#paint2_linear_39_90)" stroke-width="1.8" stroke-linecap="round" stroke-linejoin="round"/>
<path d="M23.7144 11.4287H32.2859M23.7144 15.7144H32.2859M23.7144 20.0001H32.2859" stroke="url(#paint3_linear_39_90)" stroke-width="1.8" stroke-linecap="round" stroke-linejoin="round"/>
</g>
<defs>
<linearGradient id="paint0_linear_39_90" x1="27.5001" y1="29.8105" x2="27.5001" y2="40.9999" gradientUnits="userSpaceOnUse">
<stop stop-color="#2A9DDD"/>
<stop offset="1" stop-color="#1A91F8"/>
</linearGradient>
<linearGradient id="paint1_linear_39_90" x1="28.0002" y1="9.79742" x2="28.0002" y2="25.1429" gradientUnits="userSpaceOnUse">
<stop stop-color="#2A9DDD"/>
<stop offset="1" stop-color="#1A91F8"/>
</linearGradient>
<linearGradient id="paint2_linear_39_90" x1="28.0002" y1="3.94596" x2="28.0002" y2="7.14294" gradientUnits="userSpaceOnUse">
<stop stop-color="#2A9DDD"/>
<stop offset="1" stop-color="#1A91F8"/>
</linearGradient>
<linearGradient id="paint3_linear_39_90" x1="28.0002" y1="13.6061" x2="28.0002" y2="20.0001" gradientUnits="userSpaceOnUse">
<stop stop-color="#2A9DDD"/>
<stop offset="1" stop-color="#1A91F8"/>
</linearGradient>
<clipPath id="clip0_39_90">
<rect width="23.9999" height="23.9999" fill="white" transform="translate(16.0002 2.00009)"/>
</clipPath>
</defs>
</svg>
