<svg width="360" height="175" viewBox="0 0 360 175" fill="none" xmlns="http://www.w3.org/2000/svg">
<path fill-rule="evenodd" clip-rule="evenodd" d="M-16.1642 0H375V134.317C363.539 136.378 353.384 142.488 345.902 151.206H345.864C332.237 165.85 312.859 175 291.358 175C269.858 175 250.48 165.85 236.853 151.206H236.806C227.934 142.629 216.08 137.39 203.06 137.39C190.039 137.39 178.186 142.629 169.314 151.206H169.171C159.915 161.378 146.904 167.708 132.493 167.708C117.081 167.708 103.27 160.469 93.9425 149.034C85.292 140.623 73.6523 135.471 60.8509 135.471C49.5007 135.471 39.0639 139.521 30.814 146.301C21.5426 156.648 8.41776 163.103 -6.13433 163.103C-34.2267 163.103 -57 139.048 -57 109.375C-57 83.3283 -39.4531 61.6106 -16.1642 56.6912V0Z" fill="#2E6EB6"/>
</svg>
