<svg width="18" height="18" viewBox="0 0 18 18" fill="none" xmlns="http://www.w3.org/2000/svg">
<path d="M9.01504 2.18222C6.53254 2.18222 4.51504 4.19972 4.51504 6.68222V8.84972C4.51504 9.30722 4.32004 10.0047 4.08754 10.3947L3.22504 11.8272C2.69254 12.7122 3.06004 13.6947 4.03504 14.0247C7.26754 15.1047 10.755 15.1047 13.9875 14.0247C14.895 13.7247 15.2925 12.6522 14.7975 11.8272L13.935 10.3947C13.71 10.0047 13.515 9.30722 13.515 8.84972V6.68222C13.515 4.20722 11.49 2.18222 9.01504 2.18222Z" stroke="#FEFEFE" stroke-miterlimit="10" stroke-linecap="round"/>
<path d="M10.4025 2.39932C9.49557 2.14101 8.5345 2.14101 7.62753 2.39932C7.84503 1.84432 8.38503 1.45432 9.01503 1.45432C9.64503 1.45432 10.185 1.84432 10.4025 2.39932Z" stroke="#FEFEFE" stroke-miterlimit="10" stroke-linecap="round" stroke-linejoin="round"/>
<path d="M11.265 14.2951C11.265 15.5326 10.2525 16.5451 9.01501 16.5451C8.40001 16.5451 7.83001 16.2901 7.42501 15.8851C7.00363 15.4631 6.76636 14.8915 6.76501 14.2951" stroke="#FEFEFE" stroke-miterlimit="10"/>
</svg>
