<svg width="16" height="16" viewBox="0 0 16 16" fill="none" xmlns="http://www.w3.org/2000/svg">
<path d="M13.6016 1.49956H9.76093C9.64151 1.49947 9.52692 1.54664 9.44218 1.63077L1.76406 9.30662C1.59594 9.47552 1.50156 9.7041 1.50156 9.94237C1.50156 10.1806 1.59594 10.4092 1.76406 10.5781L5.42031 14.2333C5.58926 14.4014 5.8179 14.4957 6.05625 14.4957C6.29459 14.4957 6.52324 14.4014 6.69218 14.2333L14.3672 6.56056C14.4513 6.47585 14.4985 6.36129 14.4984 6.2419V2.39929C14.499 2.28124 14.4762 2.16424 14.4314 2.05502C14.3866 1.9458 14.3206 1.84653 14.2372 1.7629C14.1539 1.67928 14.0548 1.61297 13.9457 1.56777C13.8366 1.52257 13.7196 1.49939 13.6016 1.49956Z" stroke="url(#paint0_linear_47_65)" stroke-linecap="round" stroke-linejoin="round"/>
<path d="M12 4.99911C11.8022 4.99911 11.6089 4.94046 11.4444 4.83058C11.28 4.7207 11.1518 4.56452 11.0761 4.38179C11.0004 4.19907 10.9806 3.998 11.0192 3.80402C11.0578 3.61004 11.153 3.43185 11.2929 3.292C11.4327 3.15215 11.6109 3.05691 11.8049 3.01832C11.9989 2.97974 12.2 2.99954 12.3827 3.07523C12.5654 3.15092 12.7216 3.27909 12.8315 3.44354C12.9414 3.60799 13 3.80133 13 3.99911C13 4.26432 12.8946 4.51868 12.7071 4.70621C12.5196 4.89375 12.2652 4.99911 12 4.99911Z" fill="url(#paint1_linear_47_65)"/>
<defs>
<linearGradient id="paint0_linear_47_65" x1="8" y1="4.80106" x2="8" y2="14.4957" gradientUnits="userSpaceOnUse">
<stop stop-color="#2A9DDD"/>
<stop offset="1" stop-color="#1A91F8"/>
</linearGradient>
<linearGradient id="paint1_linear_47_65" x1="12" y1="3.50718" x2="12" y2="4.99911" gradientUnits="userSpaceOnUse">
<stop stop-color="#2A9DDD"/>
<stop offset="1" stop-color="#1A91F8"/>
</linearGradient>
</defs>
</svg>
