<svg width="31" height="37" viewBox="0 0 31 37" fill="none" xmlns="http://www.w3.org/2000/svg">
<g clip-path="url(#clip0_39_82)">
<path fill-rule="evenodd" clip-rule="evenodd" d="M16 13C18.396 13 20.575 13.694 22.178 14.671C22.978 15.161 23.662 15.736 24.156 16.361C24.642 16.977 25 17.713 25 18.5C25 19.345 24.589 20.011 23.997 20.486C23.437 20.936 22.698 21.234 21.913 21.442C20.335 21.859 18.229 22 16 22C13.771 22 11.665 21.86 10.087 21.442C9.302 21.234 8.563 20.936 8.003 20.486C7.41 20.01 7 19.345 7 18.5C7 17.713 7.358 16.977 7.844 16.361C8.338 15.736 9.021 15.161 9.822 14.671C11.425 13.694 13.605 13 16 13ZM16 15C13.977 15 12.157 15.59 10.864 16.379C10.217 16.773 9.729 17.201 9.414 17.601C9.09 18.011 9 18.321 9 18.5C9 18.622 9.037 18.751 9.255 18.926C9.504 19.126 9.937 19.333 10.599 19.508C11.917 19.858 13.811 20 16 20C18.19 20 20.083 19.857 21.4 19.508C22.063 19.333 22.496 19.126 22.745 18.926C22.963 18.751 23 18.622 23 18.5C23 18.32 22.91 18.011 22.587 17.601C22.271 17.201 21.783 16.773 21.136 16.379C19.843 15.589 18.023 15 16 15ZM16 2C17.3261 2 18.5979 2.52678 19.5355 3.46447C20.4732 4.40215 21 5.67392 21 7C21 8.32608 20.4732 9.59785 19.5355 10.5355C18.5979 11.4732 17.3261 12 16 12C14.6739 12 13.4021 11.4732 12.4645 10.5355C11.5268 9.59785 11 8.32608 11 7C11 5.67392 11.5268 4.40215 12.4645 3.46447C13.4021 2.52678 14.6739 2 16 2ZM16 4C15.606 4 15.2159 4.0776 14.8519 4.22836C14.488 4.37913 14.1573 4.6001 13.8787 4.87868C13.6001 5.15726 13.3791 5.48797 13.2284 5.85195C13.0776 6.21593 13 6.60603 13 7C13 7.39397 13.0776 7.78407 13.2284 8.14805C13.3791 8.51203 13.6001 8.84274 13.8787 9.12132C14.1573 9.3999 14.488 9.62087 14.8519 9.77164C15.2159 9.9224 15.606 10 16 10C16.7956 10 17.5587 9.68393 18.1213 9.12132C18.6839 8.55871 19 7.79565 19 7C19 6.20435 18.6839 5.44129 18.1213 4.87868C17.5587 4.31607 16.7956 4 16 4Z" fill="url(#paint0_linear_39_82)"/>
</g>
<path d="M1.3608 36V27.2727H4.63352C5.30398 27.2727 5.86648 27.3977 6.32102 27.6477C6.77841 27.8977 7.12358 28.2415 7.35653 28.679C7.59233 29.1136 7.71023 29.608 7.71023 30.1619C7.71023 30.7216 7.59233 31.2187 7.35653 31.6534C7.12074 32.0881 6.77273 32.4304 6.3125 32.6804C5.85227 32.9276 5.28551 33.0511 4.61222 33.0511H2.44318V31.7514H4.39915C4.79119 31.7514 5.11222 31.6832 5.36222 31.5469C5.61222 31.4105 5.79688 31.223 5.91619 30.9844C6.03835 30.7457 6.09943 30.4716 6.09943 30.1619C6.09943 29.8523 6.03835 29.5795 5.91619 29.3438C5.79688 29.108 5.6108 28.9247 5.35795 28.794C5.10795 28.6605 4.78551 28.5938 4.39062 28.5938H2.94176V36H1.3608ZM9.01527 36V29.4545H10.511V30.5455H10.5792C10.6985 30.1676 10.9031 29.8764 11.1928 29.6719C11.4854 29.4645 11.8192 29.3608 12.1942 29.3608C12.2795 29.3608 12.3746 29.3651 12.4798 29.3736C12.5877 29.3793 12.6772 29.3892 12.7482 29.4034V30.8224C12.6829 30.7997 12.5792 30.7798 12.4371 30.7628C12.2979 30.7429 12.163 30.733 12.0323 30.733C11.7511 30.733 11.4982 30.794 11.2738 30.9162C11.0522 31.0355 10.8775 31.2017 10.7496 31.4148C10.6218 31.6278 10.5579 31.8736 10.5579 32.152V36H9.01527ZM16.3587 36.1278C15.7195 36.1278 15.1655 35.9872 14.6967 35.706C14.228 35.4247 13.8643 35.0312 13.6058 34.5256C13.3501 34.0199 13.2223 33.429 13.2223 32.7528C13.2223 32.0767 13.3501 31.4844 13.6058 30.9759C13.8643 30.4673 14.228 30.0724 14.6967 29.7912C15.1655 29.5099 15.7195 29.3693 16.3587 29.3693C16.9979 29.3693 17.5518 29.5099 18.0206 29.7912C18.4893 30.0724 18.8516 30.4673 19.1072 30.9759C19.3658 31.4844 19.495 32.0767 19.495 32.7528C19.495 33.429 19.3658 34.0199 19.1072 34.5256C18.8516 35.0312 18.4893 35.4247 18.0206 35.706C17.5518 35.9872 16.9979 36.1278 16.3587 36.1278ZM16.3672 34.892C16.7138 34.892 17.0036 34.7969 17.2365 34.6065C17.4695 34.4134 17.6428 34.1548 17.7564 33.831C17.8729 33.5071 17.9311 33.1463 17.9311 32.7486C17.9311 32.348 17.8729 31.9858 17.7564 31.6619C17.6428 31.3352 17.4695 31.0753 17.2365 30.8821C17.0036 30.6889 16.7138 30.5923 16.3672 30.5923C16.0121 30.5923 15.7166 30.6889 15.4808 30.8821C15.2479 31.0753 15.0732 31.3352 14.9567 31.6619C14.843 31.9858 14.7862 32.348 14.7862 32.7486C14.7862 33.1463 14.843 33.5071 14.9567 33.831C15.0732 34.1548 15.2479 34.4134 15.4808 34.6065C15.7166 34.7969 16.0121 34.892 16.3672 34.892ZM24.1197 29.4545V30.6477H20.2504V29.4545H24.1197ZM21.2177 36V28.8366C21.2177 28.3963 21.3086 28.0298 21.4904 27.7372C21.6751 27.4446 21.9222 27.2259 22.2319 27.081C22.5415 26.9361 22.8853 26.8636 23.2631 26.8636C23.5302 26.8636 23.7674 26.8849 23.9748 26.9276C24.1822 26.9702 24.3356 27.0085 24.435 27.0426L24.1282 28.2358C24.0629 28.2159 23.9805 28.196 23.881 28.1761C23.7816 28.1534 23.6708 28.142 23.5487 28.142C23.2617 28.142 23.0586 28.2116 22.9393 28.3509C22.8228 28.4872 22.7646 28.6832 22.7646 28.9389V36H21.2177ZM25.3278 36V29.4545H26.8704V36H25.3278ZM26.1033 28.5256C25.859 28.5256 25.6488 28.4446 25.4727 28.2827C25.2965 28.1179 25.2085 27.9205 25.2085 27.6903C25.2085 27.4574 25.2965 27.2599 25.4727 27.098C25.6488 26.9332 25.859 26.8509 26.1033 26.8509C26.3505 26.8509 26.5607 26.9332 26.734 27.098C26.9102 27.2599 26.9982 27.4574 26.9982 27.6903C26.9982 27.9205 26.9102 28.1179 26.734 28.2827C26.5607 28.4446 26.3505 28.5256 26.1033 28.5256ZM29.9993 27.2727V36H28.4567V27.2727H29.9993Z" fill="url(#paint1_linear_39_82)"/>
<defs>
<linearGradient id="paint0_linear_39_82" x1="16" y1="7.08074" x2="16" y2="22" gradientUnits="userSpaceOnUse">
<stop stop-color="#2196EE"/>
<stop offset="1" stop-color="#1A91F8"/>
</linearGradient>
<linearGradient id="paint1_linear_39_82" x1="16" y1="27.8106" x2="16" y2="39" gradientUnits="userSpaceOnUse">
<stop stop-color="#2196EE"/>
<stop offset="1" stop-color="#1A91F8"/>
</linearGradient>
<clipPath id="clip0_39_82">
<rect width="24" height="24" fill="white" transform="translate(4)"/>
</clipPath>
</defs>
</svg>
