<svg width="100" height="100" viewBox="0 0 100 100" fill="none" xmlns="http://www.w3.org/2000/svg">
<path d="M38.25 28.375H40.9375L41.75 28.5625L42.5625 29.0625L42.875 29.375L43.0625 29.625V29.75H43.1875L43.25 30H43.375L43.625 30.4375L43.75 30.5625V30.75H43.875V30.9375H44L44.125 31.125V31.3125H44.25V31.5H44.375L44.6875 32.0625L44.875 32.375L45.1875 33.3125V33.625L44.6875 34.125L44.1875 34.5625L43.9375 34.8125H43.8125L43.6875 35.0625L43.1875 35.5625H43.0625L42.9375 35.8125L42.1875 36.5625H42.0625L41.9375 36.8125H41.8125L41.6875 37.0625L40.5625 38.1875L39.875 39.125L39.5 39.75L39.125 40.6875L38.9375 41.625V42.5L39.1875 43.5L39.5 44.0625L39.75 44.4375L39.9375 44.625L40.375 45.125L41.125 45.75L41.5 46V46.125L41.8125 46.25L42.75 46.875L43.9375 47.625L45.1875 48.375L45.5625 48.625V48.75H45.75V48.875H45.9375V49L46.25 49.0625L46.875 49.5L47 49.5625V49.6875L47.375 49.8125L47.875 50.125V50.25H48.0625V50.375L48.3125 50.4375L49 50.875L50.0625 51.5V51.625H50.25L50.5625 52.0625L50.4375 52.375L49.875 53.0625L49.125 53.9375L48.625 54.5625L47.75 55.625L45.9375 58L45.1875 59L44.5 59.8125L43.125 61.5625L42.3125 62.4375L42.0625 62.75L39.25 62.8125H21.625L20.75 62.75L20.4375 62.6875L18.9375 62.5625L18.375 62.4375L17.1875 62.25L15.9375 61.8125L14.9375 61.375L14.5 61.0625L14.3125 61L14.1875 60.8125L14.125 55.875V37.75L14.1875 36.75L14.4375 36.25H14.5625V36.0625H14.6875L14.75 35.8125L15.0625 35.5L15.4375 35.1875L15.625 35H15.75V34.875L16.75 34.375L17.375 34.1875L18.125 34.125H19.625L20.5625 34.25L21.125 34.4375L22.125 34.9375L22.5625 35.25L22.875 35.5625L23 35.625V35.75H23.125L23.5 36.25L23.75 36.5L24 36.8125V36.9375H24.125L24.25 37.1875L24.375 37.25L24.5 37.5L24.8125 37.8125L25.25 38.3125L25.6875 38.6875L26.1875 38.875L27.0625 39H28.9375L30.3125 38.875L31 38.6875L31.5 37.5625L31.75 36.9375L31.875 36.5L32.375 34.6875L32.5625 34.0625L32.75 33.625L33 32.8125L33.625 31.375L34.0625 30.6875L34.25 30.4375L34.4375 30.125L34.875 29.75L35.1875 29.4375L35.75 29L36.4375 28.6875L37 28.5L38.25 28.375Z" fill="#FCFCFC"/>
<path d="M85.5625 62.25H85.9375L86.125 62.4375L86.25 62.75L86.875 63.9375L87.5625 65.375L87.75 66.3125V66.6875L87.4375 67.125L86.6875 67.6875L85.6875 68.25L84.625 68.75L84 69L83.125 69.3125L82.625 69.5L81.1875 69.9375L80.4375 70.125L79.875 70.25L78.125 70.4375L77.3125 70.5L77.1875 70.5625H21.875L17.25 70.625L15.75 70.5625L14.75 70.375L13.75 69.875L13.0625 69.4375L13 69.3125L12.6875 69.125L12.125 68.4375L11.9375 68.0625V66.9375L12.25 66L12.5625 65.25L12.75 64.8125L13 64.0625L13.375 63.375L13.6875 63.3125L16 64.125L17.5625 64.5L19.125 64.75L20.3125 64.875L21.3125 64.9375H73.1875L74.75 64.875L76.875 64.6875L79.5625 64.1875L81.5625 63.6875L83.1875 63.1875L85.3125 62.3125L85.5625 62.25Z" fill="#FCFCFC"/>
<path d="M74.25 50.875H75.875L77.375 51.1875L78.6875 51.625L80 52.25L81.3125 53.125L81.875 53.625L82.375 54.0625L83 54.75L83.1875 55V55.125H83.3125L83.5 55.4375V55.5625H83.625V55.75H83.75L84.5 57.125L84.6875 57.5625L84.875 58.1875L85.125 58.8125L85.25 59.5V59.8125L84.75 60.125L83 60.8125L81.3125 61.375L79.625 61.8125L77.1875 62.25L75.1875 62.5L73 62.625L70.5625 62.6875H46.1875L45 62.5625L45.0625 62.3125L45.5625 61.875L46 61.375L46.5 60.8125L46.75 60.5L47.1875 60L47.75 59.375L47.875 59.125H48L48.0625 58.875H48.1875L48.3125 58.625L48.5625 58.25H48.6875L48.75 58L48.875 57.9375L48.9375 57.75H49.0625L49.1875 57.4375L49.4375 57.1875L49.875 56.6875L49.9375 56.5L50.1875 56.25L50.5625 55.8125L50.8125 55.5L51.125 55.0625L51.4375 54.75L51.5 54.5625L51.8125 54.25L52.375 53.5L52.4375 53.375L52.8125 53.4375L54.0625 54.0625L55.0625 54.75L55.4375 54.9375L55.875 55.1875L56.0625 55.3125V55.4375L56.3125 55.5L56.5625 55.75L56.875 55.875V56L57.1875 56.0625L57.9375 56.5625L58.25 56.75V56.875H58.4375V57L58.75 57.0625V57.1875L59.125 57.3125L59.25 57.375V57.5L59.5 57.5625L59.6875 57.75L59.875 57.8125V57.9375L60.3125 58.0625L61.1875 58.625L61.75 58.9375L62.625 59.3125L63.5625 59.375L64.4375 59.1875L65.625 58.75L66.4375 58.1875L67.3125 57.4375L68.125 56.6875L71.25 53.5625L71.3125 53.4375H71.4375L71.5 53.25L72 52.8125L72.1875 52.75L72.25 52.5625L72.75 52.125L73.4375 51.4375L73.8125 51.125H74V51L74.25 50.875Z" fill="#FCFCFC"/>
<path d="M46.125 35.75L46.5 35.8125L46.8125 36V36.125L47.0625 36.25L47.25 36.375V36.5H47.375L47.625 36.875L47.875 37.125V37.8125L47.4375 38.3125L47.0625 38.625L46.625 39.125L46.0625 39.75L45.4375 40.4375L44.9375 41.3125V41.6875L45.5 42.1875L46 42.4375H46.375L47.0625 42L47.625 41.5L48.3125 40.9375L49 40.1875L49.375 39.75L49.875 39.3125L50.25 39.4375L51.0625 39.875L51.4375 40.125V40.25L51.6875 40.3125L52.3125 40.75L52.875 41.0625V41.1875L53.1875 41.3125L53.5625 41.625L53.5 41.9375L52.75 42.625L52.375 42.9375L51.9375 43.4375L51.25 44.375L51 44.9375L51.0625 45.375L51.3125 45.6875L51.8125 45.9375L52.1875 46L52.875 45.625L53.125 45.5L53.1875 45.3125L53.75 44.875L54.5625 44.125L55 43.625L55.5625 43.1875L55.75 43.125L56.625 43.5625L57.4375 44.0625V44.1875L57.8125 44.3125L58.6875 44.875L59.25 45.25L59.375 45.4375V45.75L58.5625 46.375L58 46.8125L57.5625 47.25L56.9375 48.1875L56.875 48.3125V48.6875L57.3125 49.1875L57.9375 49.625H58.3125L58.875 49.25L59.3125 48.875L59.5 48.6875H59.625L59.75 48.4375L60.125 48.125L60.3125 47.8125L60.5 47.625L60.875 47H61L61.0625 46.75L61.4375 46.8125L62.4375 47.3125L63.5625 48L64.5 48.625L65.125 49.1875L65.1875 49.4375L64.6875 49.9375L64.1875 50.375L64 50.4375L63.875 50.6875L63.375 51.3125L63.0625 51.875L63 52.3125L63.125 52.75L63.375 52.9375L63.5625 53H64.1875L64.375 52.875H64.5625V52.75H64.75V52.625L65.0625 52.4375L66 51.5L66.4375 51.125H66.5625L66.625 50.9375H66.8125V50.8125L67.4375 50.5625L68.75 50.6875L69.6875 50.9375L70.25 51.1875L70.125 51.4375L69.75 51.75L69.3125 52.25L68.8125 52.6875L68.375 53.1875L66.8125 54.75L66.75 54.875H66.625L66.5 55.125L66 55.5625L65.3125 56.1875L64.4375 56.8125L63.9375 57L63.375 56.9375L62.5 56.625L61.375 56L60.4375 55.4375L59.0625 54.625L57.4375 53.625L56.375 52.9375L55.5 52.3125L53.3125 50.875L52.125 50.125L50.5625 49.1875L49.1875 48.3125L47.6875 47.375L46.5 46.625L44.6875 45.5625L43.3125 44.6875L42.5625 44.1875L41.8125 43.4375L41.375 42.8125L41.0625 42.1875V41.6875L41.3125 41.125L41.875 40.25L42.625 39.375L43.375 38.5625L45.8125 36.125L46.125 35.75Z" fill="#FBFCFC"/>
<path d="M45.125 33.1875L45.25 33.25L45.375 33.875L45.3125 34.4375L45.4375 34.875L45.5625 35.1875L45.375 35.5625H45.25L45.3125 35.75L45.1875 35.9375H45.0625L45 36.1875L45.5625 36.3125L45.4375 36.5625L42.9375 39.0625L42.5 39.5625L41.75 40.5L41.3125 41.1875L41.125 41.6875V42.1875L41.5 42.9375L42.0625 43.625L42.625 44.1875L43.625 44.8125L44.8125 45.5625L46.5 46.5625L48.875 48.0625L50.5 49.0625L51.5 49.6875L53.125 50.6875L55.75 52.4375L56.75 53.125L58.25 54.0625L59.8125 55L61.625 56.0625L62.5 56.5625L63.375 56.875L63.9375 56.9375L64.5 56.6875L65.125 56.25L65.9375 55.5625L66.625 54.875H66.75L66.875 54.625L68.6875 52.8125L69.0625 52.375L69.5625 51.9375L70 51.4375L70.1875 51.3125V51.125L70.5625 51.1875L70.75 51.375L70.6875 51.625L70.5 52.0625L70.5625 52.4375L70.6875 52.75L70.625 52.8125L70.75 52.875L70.625 53.4375H70.5L70.4375 53.6875L70.3125 53.875H70.1875V54.0625L70.0625 54.125L70 54.3125L69.6875 54.625L69.5 54.875L69.375 55.1875L69.1875 55.5L68.5625 56L68.375 56.0625V56.1875H68.25V56.3125H68.125V56.4375L67.8125 56.5625L67.6875 56.8125L67.625 56.75L67.5 57.0625H67.375L67.4375 57.375L66.625 58.125L65.8125 58.6875L65.1875 59L64.25 59.3125L63.5625 59.4375L62.625 59.375L61.5625 58.9375L60.25 58.0625L59.875 57.9375V57.8125L59.625 57.75V57.625L59.25 57.5V57.375L58.875 57.25L58.75 57.1875V57.0625L58.4375 57V56.875H58.25L58.125 56.6875L57.4375 56.3125L57.0625 56.0625L56.875 56V55.875L56.5 55.75L56.3125 55.625V55.5L56.0625 55.4375L55.875 55.25L55.4375 55L54.75 54.625L53.9375 54.0625L52.6875 53.4375L52.4375 53.375L52.3125 53.6875L51.625 54.5625H51.5L51.4375 54.8125L51.1875 55.0625L51.3125 54.75L51.125 54.6875L51.1875 54.375L51.375 54.1875L51.6875 53.9375L51.625 53.5L51.5625 53.4375L51.25 53.5625L51 53.625L50.9375 54.0625L50.5625 54.75H50.4375L50.3125 55.0625H50.1875L50.0625 55.375L49.8125 55.6875L49.625 55.8125L49.5 56L49.0625 56.5H48.9375L48.875 56.75L48.5625 57L48.25 57.1875L48.0625 57.25V56.875L47.9375 56.6875L47.625 56.75L47.5625 56.875L47.4375 57H47.25L47.125 57.25L46.875 57.5L46.8125 57.6875H46.6875L46.625 58L46.3125 58.3125L46.125 58.625L46 58.6875L45.9375 58.875H45.8125L45.6875 59.1875L45.5 59.25L45.375 59.5L44.75 60.1875L44.6875 60.375L44.4375 60.625L44.375 60.75H44.25L44.125 61H44L43.875 61.3125L43.6875 61.625H43.5625L43.5 61.875L43.1875 62.25L42.875 62.3125L42.9375 62.125L42.5625 62.375L42.1875 62.75L42.0625 62.6875L42.75 61.9375L43.3125 61.25L44.125 60.25L45.375 58.6875L45.9375 57.9375L46.9375 56.625L47.5625 55.8125L48.375 54.8125L48.9375 54.125L49.625 53.3125L50.1875 52.625L50.5 52.1875L50.375 51.875L50.25 51.625H50.0625V51.5L49.75 51.375L48.6875 50.75L48.25 50.4375L48.0625 50.375V50.25H47.875V50.125L47.5625 50L47 49.6875V49.5625L46.6875 49.4375L46.125 49.0625L45.9375 49V48.875H45.75V48.75H45.5625L45.375 48.5625L44.1875 47.8125L43.625 47.5L42.5625 46.8125L41.625 46.1875L41.5 46.125V46L41.25 45.875L40.6875 45.4375L39.9375 44.75L39.875 44.5L39.625 44.375L39.125 43.5L38.875 42.5V41.625L39.125 40.5L39.4375 39.75L39.9375 38.9375L40.625 38.0625L41.75 36.9375L42.0625 36.5625L42.5625 36.125L43.3125 35.375L43.5625 35.0625L44.0625 34.625L44.5625 34.125L45.0625 33.6875L45.125 33.625V33.1875Z" fill="#317BD7"/>
<path d="M85.125 58.875H85.25L85.3125 59.0625L85.4375 60L85.625 60.4375L85.75 61.625L85.6875 62.1875L85.9375 62.25L85.1875 62.4375L83 63.3125L81.125 63.875L79.25 64.3125L76.875 64.75L74.75 64.9375L73.1875 65H55V64.9375L63.1875 64.875L67.5 64.8125H72.125L73.75 64.75L74 64.625L73.25 64.4375V64.3125L72.8125 64.375L72.5625 64.1875V64.0625L72.125 64V63.9375L72.5625 63.8125L72.75 63.5625L72.9375 63.4375L72.5625 63.3125L72.375 63.1875H71.9375L71.5 63.25H70.1875L69.125 63.125L68.625 63.1875L68.375 63.25L68.25 63.3125L67.9375 63.1875L67.75 63.125V63.0625L67.125 63L67 63.0625V63.1875H66.25L66 63.0625H61.8125L60.5625 63.125H57.5625L57.1875 63.1875H56L55.0625 63.25H46.8125L46.5 63.125L46.1875 63.1875H45.6875H45.4375L44.9375 63.25L44.75 63.1875V63.0625L44.375 62.9375L44.25 62.875L44.3125 62.625L45 62.5L46.1875 62.625H70.5625L73 62.5625L75.1875 62.4375L77.625 62.125L79.875 61.6875L81.3125 61.3125L83.375 60.625L85 59.9375L85.1875 59.8125L85.125 58.875Z" fill="#327BD7"/>
<path d="M44.5625 70.125H52.4375L58.4375 70.1875L72 70.25L73.1875 70.3125L77.3125 70.4375L77.1875 70.5625H18.3125V70.5L19 70.4375L20.5625 70.375L25.0625 70.3125H33.375L39.875 70.1875L44.5625 70.125Z" fill="#E9EFF6"/>
<path d="M50.75 52.0625L51.1875 52.125L51.5 52.25L51.5625 52.5625L51.75 52.625L51.8125 52.875L52.4375 53L52.75 53.25L53 53.3125V53.4375H53.1875V53.625L52.4375 53.375L52.3125 53.6875L51.625 54.5625H51.5L51.4375 54.8125L51.1875 55.0625L51.3125 54.75L51.125 54.6875L51.1875 54.375L51.375 54.1875L51.6875 53.9375L51.625 53.5L51.5625 53.4375L51.25 53.5625L51 53.625L50.9375 54.0625L50.5625 54.75H50.4375L50.3125 55.0625H50.1875L50.0625 55.375L49.8125 55.6875L49.625 55.8125L49.5 56L49.0625 56.5H48.9375L48.875 56.75L48.5625 57L48.25 57.1875L48.0625 57.25V56.875L47.9375 56.6875L47.625 56.75L47.5625 56.875L47.4375 57H47.25L47.125 57.25L46.875 57.5L46.8125 57.6875H46.6875L46.625 58L46.3125 58.3125L46.125 58.625L46 58.6875L45.9375 58.875H45.8125L45.6875 59.1875L45.5 59.25L45.375 59.5L44.75 60.1875L44.6875 60.375L44.4375 60.625L44.375 60.75H44.25L44.125 61H44L43.875 61.3125L43.6875 61.625H43.5625L43.5 61.875L43.1875 62.25L42.875 62.3125L42.9375 62.125L42.5625 62.375L42.1875 62.75L42.0625 62.6875L42.75 61.9375L43.3125 61.25L44.125 60.25L45.375 58.6875L45.9375 57.9375L46.9375 56.625L47.5625 55.8125L48.375 54.8125L48.9375 54.125L49.625 53.3125L50.1875 52.625L50.5 52.1875L50.75 52.0625Z" fill="#337CD7"/>
<path d="M47.875 37.25L48 37.375L47.875 38.125L47.9375 38.4375L48.125 38.5V38.625L48.3125 38.6875V38.8125L48.625 38.9375L48.75 39.0625L48.6875 39.6875H49L49.0625 39.5625L49.3125 39.5L49.625 39.375L49.875 39.3125L49.5 39.75H49.375L49.3125 39.9375L48.5625 40.6875L48.1875 41.125L47.5 41.6875L46.625 42.375L46.375 42.5H46L45.4375 42.1875L44.875 41.6875V41.3125L45.375 40.4375L46.25 39.5L46.375 39.3125H46.5L46.625 39.0625L47.1875 38.4375L47.6875 38L47.8125 37.8125L47.875 37.25Z" fill="#327BD7"/>
<path d="M53.5625 41.625L53.9375 41.8125V42H54.0625V42.125L54.3125 42.25L54.625 42.5625L54.8125 43L54.9375 43.125L55.1875 43.1875L55.3125 43.3125L55.5625 43.1875L55.25 43.5L54.8125 43.875L54.375 44.375L53.5625 45.125L53.1875 45.375L52.875 45.6875L52.1875 46.0625L51.625 45.9375L51.125 45.5625L50.9375 45.1875L51 44.75L51.3125 44.1875L51.9375 43.375L52.625 42.625L53.125 42.1875L53.5 41.875L53.5625 41.625Z" fill="#327BD7"/>
<path d="M45.6875 48.1875L46.0625 48.375L46.25 48.625L46.375 48.75H46.5625L47 48.6875L47.3125 48.5625L47.625 48.6875L48.1875 48.875V49L48.4375 49.0625L48.9375 49.375L49 49.5L49.1875 49.5625V49.6875L49.4375 49.75L49.75 49.875V50L50 50.0625L50.3125 50.1875V50.3125H50.4375V50.4375L50.8125 50.5625L51.4375 51L52 51.4375L52.3125 52.0625V52.375L52.1875 52.5625H52.3125V52.6875L52.6875 52.75L52.9375 52.8125L53 53V53.125L53.125 53.1875V53.0625L53.75 53.25L53.9375 53.375L54 53.6875L54.125 53.5L53.9375 53.1875L54.5 53.375V53.5625V53.75V54.0625H54.375V53.9375L53.5625 53.875L53.1875 53.6875V53.4375H53V53.3125L52.625 53.25L52.4375 53.0625L52.1875 53L51.8125 52.875L51.75 52.625L51.5 52.5625V52.25L51.1875 52.1875L50.75 52.125L50.5625 52.1875L50.25 51.75V51.625H50.0625V51.5L49.75 51.375L48.6875 50.75L48.25 50.4375L48.0625 50.375V50.25H47.875V50.125L47.5625 50L47 49.6875V49.5625L46.6875 49.4375L46.125 49.0625L45.9375 49V48.875H45.75V48.75H45.5625L45.375 48.5625V48.4375H45.5625L45.6875 48.1875Z" fill="#3471BA"/>
<path d="M41.1875 38.5L41.25 38.75V39.25L41.125 39.5V39.8125L41.1875 39.875V40.3125L41 40.5625L40.8125 41.25L40.875 41.5625L40.75 41.9375L40.625 42.1875H40.5V43.25H40.625L40.75 43.5625L40.8125 43.75L41.0625 43.8125L41.25 44.125L41.4375 44.3125L41.5625 44.625L41.8125 44.75V44.875H41.9375L42.125 45.375L42 45.5L41.5625 45.375L41.1875 45.0625L40.8125 44.8125L40.125 44.125L39.875 43.75H39.75L39.625 43.375L39.4375 43.1875V42.6875L39.375 42.5H39.25L39.1875 42.25L39.3125 41.9375V41.3125L39.1875 41.25L39.125 41.375V40.75L39.25 40.4375L39.3125 40L39.5625 39.5L39.75 39.4375L39.875 39.25L40.5625 39L40.75 38.8125H40.875V38.625L41.1875 38.5Z" fill="#3270B9"/>
<path d="M79.3125 70.25H79.75V70.3125L78.6875 70.5L77.25 70.625L54.625 70.6875H41.0625L35.1875 70.625H17.625V70.5625L21.875 70.5H77.1875L77.3125 70.4375L79.3125 70.25Z" fill="#799FD5"/>
<path d="M42.0625 70.3125H55.5625L67.9375 70.375L73.4375 70.4375L77.1875 70.5V70.5625H18.3125V70.5L20.875 70.4375L36.0625 70.375L42.0625 70.3125Z" fill="#BDCFE6"/>
<path d="M59.25 45.25L59.6875 45.625L59.8125 45.6875L59.6875 46.375L59.625 46.6875L59.6875 47.0625L59.5625 47.5L59.4375 47.75L59.125 48.0625L58.8125 48.5L58.6875 48.6875H58.5625V49L58.75 49.4375L58.3125 49.6875H57.9375L57.25 49.1875L56.8125 48.6875V48.3125L57.375 47.4375L57.9375 46.8125L58.4375 46.375L59.125 45.875L59.375 45.75L59.25 45.25Z" fill="#327BD7"/>
<path d="M78.3125 62H78.6875L78.5 62.125L75.75 62.5625L73.6875 62.75L71.4375 62.8125L62.1875 62.875H45.6875L44.875 62.75L44.9375 62.5L46.1875 62.625H70.5625L73 62.5625L75.1875 62.4375L77.625 62.125L78.3125 62Z" fill="#789FD5"/>
<path d="M30.75 37.0625L30.875 37.125V37.5625L30.9375 37.875L30.75 38.25L30.625 38.5625V38.6875H31L30.8125 38.8125L29.8125 39L28.9375 39.0625H27.0625L26 38.875L25.5 38.625L25.375 38.4375L25.6875 38.5L25.75 38.6875L26.3125 38.75V38.625H26.5V38.5H26.6875V38.3125H26.8125V38.125H26.9375V38L27.6875 37.9375L28.3125 38L29.1875 37.8125L29.5 37.75L29.875 37.5625L30.625 37.3125L30.75 37.0625Z" fill="#337CD7"/>
<path d="M76.8125 62.125H77.625V62.1875L75.1875 62.5L73 62.625L70.5625 62.6875H46.1875L45 62.5625L45.0625 62.3125H45.1875V62.4375L45.5 62.5H71.9375L74.8125 62.375L76.625 62.1875L76.8125 62.125Z" fill="#BDCFE6"/>
<path d="M36.6875 70.625H76.1875V70.6875L59.625 70.75L56.9375 70.8125H40.75L39.5 70.75L36.6875 70.6875V70.625Z" fill="#2F7AD8"/>
<path d="M14.0625 62.875L14.875 63.125L15.4375 63.375L16.375 63.6875L16.875 63.875L17.375 64V64.1875L17.8125 64.125L18.0625 64.1875H18.25V64.3125L19.5625 64.4375L19.75 64.625H20.125L20.25 64.6875L22.375 64.8125L23.875 64.875L27.0625 64.9375V65H21.3125L19.6875 64.875L17.8125 64.625L16.25 64.25L14.375 63.625L13.6875 63.375L13.3125 63.4375L13.375 63.25L13.875 63.1875L14.0625 62.875Z" fill="#377ED7"/>
<path d="M51.75 62.375H61.25L64.25 62.4375H71.75L73.375 62.375H74.8125V62.4375L71.9375 62.5625H45.5V62.5L51.75 62.375Z" fill="#E9EFF6"/>
<path d="M45.3125 64.8125H51.4375L52.875 64.875L54.9375 64.9375V65H37.0625V64.9375L44.875 64.875L45.3125 64.8125Z" fill="#2F7AD8"/>
<path d="M54.9375 54.125L55.125 54.3125V54.4375L55.4375 54.5L55.5 54.75L55.75 54.6875L56.25 55.0625V55.25L56.3125 55.125L56.5625 55.1875L57.0625 55.4375L57.125 55.6875L57.3125 55.75L57.375 56H56.875V55.875L56.5 55.75L56.3125 55.625V55.5L56.0625 55.4375L55.875 55.25L55.4375 55L54.75 54.625L54.6875 54.375H54.875L54.9375 54.125Z" fill="#3A76BE"/>
<path d="M39.75 44.375L40.0625 44.4375L40.3125 44.6875L40.6875 44.9375L40.75 44.8125L40.8125 45L40.75 45.0625L41.0625 45.1875L41.125 45.25L41.4375 45.375V45.5H41.5625V45.625H41.75V45.75H41.875L41.8125 46L41.9375 46.0625L42.0625 46.3125L42.375 46.4375L43 46.875L42.75 46.9375L41.625 46.1875L41.5 46.125V46L41.25 45.875L40.6875 45.4375L39.9375 44.75L39.875 44.5H39.75V44.375Z" fill="#3775BE"/>
<path d="M48.125 64.8125H51.4375L52.875 64.875L54.9375 64.9375V65H47.875L48.125 64.8125Z" fill="#367ED7"/>
<path d="M41 41.6875H41.0625L41.1875 42.3125L41.5625 43L42.0625 43.625L42.625 44.1875L43.625 44.8125L43.875 45.0625L43.5625 44.9375L42.4375 44.25L41.4375 43.3125L41.125 43.125L41 42.9375L41.0625 42.4375L40.9375 41.9375L41 41.6875Z" fill="#789FD5"/>
<path d="M43.9375 61V61.1875L43.6875 61.625H43.5625L43.5 61.875L43.1875 62.25L42.875 62.3125L42.9375 62.125L42.5625 62.375L42.1875 62.75L42.0625 62.6875L42.75 61.9375L43.3125 61.25L43.5 61.1875L43.4375 61.4375H43.5625V61.3125H43.6875V61.1875H43.8125V61.0625L43.9375 61Z" fill="#377ED6"/>
<path d="M44.5625 34.125L44.6875 34.1875L40.5625 38.3125V38.125L41.75 36.9375L42.0625 36.5625L42.5625 36.125L43.3125 35.375L43.5625 35.0625L44.0625 34.625L44.5625 34.125Z" fill="#578ED6"/>
<path d="M46.125 35.75H46.25L46.125 36L43 39.125L42.875 39.0625L45.8125 36.125L46.125 35.75Z" fill="#DBE5F1"/>
<path d="M15.0625 61.375L16.25 61.875L16.125 61.9375V62.125H15.5625L15.3125 62.0625L15.1875 61.75L15.0625 61.6875L15.1875 61.625L15.0625 61.375Z" fill="#377ED6"/>
<path d="M58 56.4375L58.3125 56.5625L58.5 56.6875V56.5625L58.75 56.6875V56.9375L59.0625 57.0625L59.5625 57.4375L59.625 57.625L59.25 57.5V57.375L58.875 57.25L58.75 57.1875V57.0625L58.4375 57V56.875H58.25L58 56.5625V56.4375Z" fill="#4079BF"/>
<path d="M52 44.1875L52.125 44.3125L51.9375 44.875H51.8125L51.75 45.25L51.5625 45.3125L51.4375 45.25V44.875L51.8125 44.375L52 44.1875Z" fill="#3270B9"/>
<path d="M53 44.875L53.375 45.0625L53.3125 45.3125L52.9375 45.5L52.8125 45.4375L52.75 45.1875L52.8125 45L53 44.875Z" fill="#3170BA"/>
<path d="M49.875 39.3125L50 39.375L48.625 40.75L48.5 40.6875L49 40.1875L49.375 39.75L49.875 39.3125Z" fill="#E4EBF4"/>
<path d="M51.25 64.8125L52.0625 64.875V65H50.125V64.9375L51.125 64.875L51.25 64.8125Z" fill="#528CD6"/>
<path d="M60.875 55.6875L61.1875 55.8125L62.5 56.5625L62.3125 56.625L61.9375 56.4375L60.9375 55.8125L60.875 55.6875Z" fill="#789FD5"/>
<path d="M35.375 29.25L35.5 29.3125L34.5 30.3125L34.3125 30.375L34.4375 30.125L34.875 29.75L35.1875 29.4375L35.375 29.25Z" fill="#C5D5EB"/>
<path d="M58.9375 57L59.5 57.375L59.625 57.625L59.25 57.5V57.375L58.875 57.25L58.75 57.1875V57.0625L58.9375 57Z" fill="#5A8CCA"/>
<path d="M50 64.8125H50.6875L51.125 64.875V64.9375L50.125 65H49.4375V64.875L50 64.8125Z" fill="#2F7AD8"/>
<path d="M59.5625 57.4375L59.875 57.5625L60.25 57.875L60.0625 57.9375L59.625 57.75L59.5625 57.4375Z" fill="#417ABE"/>
<path d="M53.9375 53.1875L54.5 53.375V53.5625L54.25 53.625L53.9375 53.25V53.1875Z" fill="#3170BB"/>
<path d="M42.125 46.4375L42.4375 46.5L43 46.875L42.75 46.9375L42.125 46.5V46.4375Z" fill="#437DC4"/>
<path d="M63 51.875L63.125 51.9375L63.1875 52.25L63.125 52.5625L63.1875 52.8125L63 52.625L62.9375 52.125L63 51.875Z" fill="#3F82D7"/>
<path d="M45.0625 62.3125H45.1875V62.4375L46.1875 62.5625V62.625H45.375L45 62.5625L45.0625 62.3125Z" fill="#B8CBE4"/>
<path d="M63.625 52.875L64.3125 52.9375L64.1875 53.0625H63.5625L63.375 52.9375L63.625 52.875Z" fill="#4384D7"/>
<path d="M52.6875 53.25L53 53.3125V53.4375H53.1875V53.625L52.4375 53.375L52.6875 53.25Z" fill="#4F8AD6"/>
</svg>
